<svg xmlns="http://www.w3.org/2000/svg" xmlns:xlink="http://www.w3.org/1999/xlink" viewBox="0 0 64 64"><style><![CDATA[.B{fill:#FAA639}]]></style><path d="M11.8 15.4h40.4c.5 0 .9.4.9.9v30c0 .5-.4.9-.9.9H11.8c-.5 0-.9-.4-.9-.9v-30c0-.5.4-.9.9-.9z" fill="none" stroke="#FAA639" stroke-width="2.294" stroke-linejoin="bevel"/><path class="B" d="M21.7 17.5c-.1.5-.5.9-1.1.9h-.5c-.5 0-1-.4-1.1-.9v-5.8c.1-.5.6-.9 1.1-.9h.5c.5 0 1 .3 1.1.9v5.8zm11.9 0c0 .5-.5.9-1 .9h-.4c-.5 0-1-.4-1-.9v-5.8c0-.5.5-.9 1-.9h.4c.5 0 1 .4 1 .9v5.8z"/><use xlink:href="#B" class="B"/><use xlink:href="#B" x="-12.1" class="B"/><use xlink:href="#B" x="-24.1" class="B"/><path d="M16.3 22.1h8.1v7.2h-8.1zm11.7 0h8.1v7.2H28zm11.8 0h8.1v7.2h-8.1zm0 12h8.1v7.2h-8.1zm-11.8 0h8.1v7.2H28zm-12.1 0H24v7.2h-8.1z" class="B"/><defs ><path id="B" d="M45.9 17.5c0 .5-.6.9-1.2.9h-.5c-.7 0-1.2-.4-1.2-.9v-5.8c0-.5.6-.9 1.2-.9h.5c.7 0 1.2.4 1.2.9v5.8z"/></defs></svg>