<svg id="Layer_1" data-name="Layer 1" xmlns="http://www.w3.org/2000/svg" viewBox="0 0 30 30"><defs><style>.cls-1{opacity:0.6;}.cls-2{fill:#f2a437;}.cls-3{fill:#4869ef;}</style></defs><title>flight</title><g class="cls-1"><path class="cls-2" d="M12.81,21l-.73.56h0l-.61.48a7.74,7.74,0,0,1-1.08.71,7.46,7.46,0,0,1-.8.4h0A.7.7,0,0,1,8.81,23a.69.69,0,0,1-.14-.76,7.61,7.61,0,0,1,.4-.81,8.75,8.75,0,0,1,.71-1.08l.48-.6h0l.57-.73L20.21,8.32a4.55,4.55,0,0,1,3.34-1.46,4.82,4.82,0,0,1,.65,0l.4.06a.36.36,0,0,1,.3.3l.05.4a4.53,4.53,0,0,1-1.41,4Z"/></g><g class="cls-1"><path class="cls-2" d="M13,25.51V26a.37.37,0,0,1-.13.28l-1.78-3.09.19-.13.16-.1c.17-.11.34-.23.49-.35h0l.29-.22A6.7,6.7,0,0,1,13,25.51Z"/></g><g class="cls-1"><path class="cls-2" d="M23.91,21.52a1.11,1.11,0,0,1-.44.86l-3.75-6.5L21.9,14l.36.64a12.25,12.25,0,0,1,1.65,6.2Z"/></g><path class="cls-3" d="M21.21,12.35,22.79,11h0a5.26,5.26,0,0,0,1.64-4.6l-.06-.4a1.06,1.06,0,0,0-.89-.9l-.41,0a5.25,5.25,0,0,0-4.61,1.63L17.06,8.2l-.75-.44A13.21,13.21,0,0,0,9.76,6H9.11A1.73,1.73,0,0,0,7.6,6.9l-.13.22a.36.36,0,0,0,.13.48l6.68,3.85L9.06,17.37l-.4.52A7.29,7.29,0,0,0,5.12,17H4.6a1.05,1.05,0,0,0-.91.52l-.15.26a.34.34,0,0,0,0,.26.41.41,0,0,0,.17.22l3.4,2q-.15.29-.27.57a1.41,1.41,0,0,0,.12,1.32,1.43,1.43,0,0,0,1.16.64,1.31,1.31,0,0,0,.56-.12h0c.18-.08.36-.16.54-.26l2,3.4a.41.41,0,0,0,.22.17.34.34,0,0,0,.26,0l.26-.15h0a1.06,1.06,0,0,0,.53-.91v-.52a7.55,7.55,0,0,0-.91-3.54l.5-.39L18,15.13l3.86,6.68a.35.35,0,0,0,.48.13l.22-.12a1.76,1.76,0,0,0,.87-1.52v-.65a13.07,13.07,0,0,0-1.74-6.54ZM9.11,6.73h.65A12.37,12.37,0,0,1,16,8.37l.64.37-1.85,2.18L8.26,7.17A1,1,0,0,1,9.11,6.73Zm-4.51,11h.52a6.6,6.6,0,0,1,3.11.77L8,18.73c-.13.16-.25.33-.37.51a1.3,1.3,0,0,1-.1.15l-.13.2L4.32,17.81A.37.37,0,0,1,4.6,17.68Zm7.13,6.61v.52a.34.34,0,0,1-.13.28L9.82,22l.2-.13.16-.1a5.6,5.6,0,0,0,.49-.36h0l.29-.23A6.74,6.74,0,0,1,11.73,24.29Zm-.15-4.47-.72.56h0l-.62.48a7.94,7.94,0,0,1-1.07.71,8.52,8.52,0,0,1-.8.4h0a.71.71,0,0,1-.76-.17.69.69,0,0,1-.15-.76,7.68,7.68,0,0,1,.41-.81,6.94,6.94,0,0,1,.71-1.08L9,18.55H9l.56-.73L19,7.1a4.57,4.57,0,0,1,3.34-1.47,4.62,4.62,0,0,1,.65,0l.41.06a.34.34,0,0,1,.29.3l.06.4a4.59,4.59,0,0,1-1.41,4Zm11.1.48a1,1,0,0,1-.44.85l-3.75-6.49,2.18-1.84.37.64a12.24,12.24,0,0,1,1.65,6.19Z"/><path class="cls-3" d="M20.44,7.54a1,1,0,0,1,1.28.16A1.06,1.06,0,0,1,21.88,9a.35.35,0,0,0,.12.48.35.35,0,0,0,.48-.12,1.76,1.76,0,0,0-2.4-2.41.35.35,0,0,0-.18.31.35.35,0,0,0,.18.3A.38.38,0,0,0,20.44,7.54Z"/></svg>