<svg id="Layer_1" data-name="Layer 1" xmlns="http://www.w3.org/2000/svg" viewBox="0 0 30 30"><defs><style>.cls-1{opacity:0.6;}.cls-2{fill:#f2a437;}.cls-3{fill:#4869ef;}</style></defs><title>topup</title><g class="cls-1"><rect class="cls-2" x="7.8" y="13.78" width="17.84" height="13.2" rx="1.85"/></g><g class="cls-1"><path class="cls-2" d="M12.35,11.57,13.89,8.4s.11.19.25.2l1.5-3.32.07-.12a1.65,1.65,0,0,0-2.07.71L11,11.55Z"/></g><path class="cls-3" d="M8.54,11.53v.57h-1c-.39,0-.39,1,0,1H21.94a1.23,1.23,0,0,1,1.25,1.3v1H19.72a2.8,2.8,0,1,0,0,5.59h3.47v2.65A1.31,1.31,0,0,1,21.94,25H7.48A1.47,1.47,0,0,1,6,23.61V12.83a1.28,1.28,0,0,1,1.44-1.3H8.54m.75-.75H7.48a2,2,0,0,0-2.19,2.05V23.61a2.23,2.23,0,0,0,2.19,2.14H21.94a2.05,2.05,0,0,0,2-2.14v-3.4H19.72a2,2,0,1,1,0-4.09h4.22V14.37a2,2,0,0,0-2-2H9.29V10.78Z"/><path class="cls-3" d="M24,16.91H20.09a1.3,1.3,0,1,0,0,2.59H24c.09,0,.18-.06.18-.14V17C24.13,17,24,16.91,24,16.91Zm-3.81,1.91a.6.6,0,1,1,.6-.6A.6.6,0,0,1,20.14,18.82Z"/><path class="cls-3" d="M23.33,11.62H20.84l.89-1.7a2.24,2.24,0,0,1-1.24-2.23l-1.31-.64a2.09,2.09,0,0,1-2.26,1l-1.74,3.62H13l3.12-6.76a1.74,1.74,0,0,1,1-.94A2.48,2.48,0,0,1,19,4l4.69,2a2.16,2.16,0,0,1,1.17,1.17,1.92,1.92,0,0,1-.06,1.52Zm-1.25-.75h.78l1.22-2.48a1.21,1.21,0,0,0,0-.93,1.4,1.4,0,0,0-.76-.75l-4.7-2a1.74,1.74,0,0,0-1.29-.1,1,1,0,0,0-.56.54l-2.64,5.71h.54l1.81-3.78.32.11a1.41,1.41,0,0,0,1.84-.79l.15-.36,2.55,1.23-.1.32c0,.11-.33,1.18,1.11,1.81l.37.16Z"/><path class="cls-3" d="M19.52,13H17a.57.57,0,0,1-.48-.28,2.56,2.56,0,0,1-.06-2,2,2,0,0,1,2.59-1.1,2,2,0,0,1,1,1.1,2,2,0,0,1,0,1.54.84.84,0,0,1,0,.12C19.94,12.71,19.85,13,19.52,13Zm-2.39-.75h2.16v0c0-.08.05-.16.07-.2h0a1.25,1.25,0,0,0,0-1,1.21,1.21,0,0,0-.64-.69,1.26,1.26,0,0,0-1.59.72A2,2,0,0,0,17.13,12.27Z"/></svg>