<?xml version="1.0" encoding="utf-8"?>
<!-- Generator: Adobe Illustrator 22.0.1, SVG Export Plug-In . SVG Version: 6.00 Build 0)  -->
<svg version="1.1" id="Layer_1" xmlns="http://www.w3.org/2000/svg" xmlns:xlink="http://www.w3.org/1999/xlink" x="0px" y="0px"
	 viewBox="0 0 59.8 57.5" style="enable-background:new 0 0 59.8 57.5;" xml:space="preserve">
<style type="text/css">
	.st0{fill:#FAA639;}
</style>
<path class="st0" d="M7.8,26.4v-9.3c0.2-0.9,1-1.5,1.9-1.3c1,0.1,2.1,0,3.1,0h0.6V14c0.1-1.8,1-3.4,2.4-3.9
	c3.7-1.4,7.5-2.2,11.4-2.5c2.7-0.2,5.3-0.1,8,0.3C38.1,8.3,41,9,43.8,10c1.7,0.6,2.6,2.1,2.6,4.3v1.4h3.7c0.9-0.1,1.7,0.5,1.9,1.3
	v9.3c-0.1,0.6-0.7,0.9-1.2,0.8c-0.6-0.1-1.2,0-1.8,0c-0.8,0-1.1-0.3-1.1-1.3V19h-1.4v24.4c0,1.6-0.7,2.9-2,3.3l-0.8,0.2v1.5
	c0,1.1-0.6,1.7-1.5,1.7h-2.5c-0.9,0-1.5-0.7-1.5-1.8v-1.5H21.6v1.5c0,1.1-0.6,1.8-1.5,1.8h-2.5c-1,0-1.6-0.6-1.6-1.8v-1.4
	c-0.3,0-0.5-0.1-0.8-0.2c-1.2-0.4-1.9-1.7-1.9-3.3V19H12v6.9c0,0.9-0.3,1.2-1.1,1.2c-0.6,0-1.2-0.1-1.8,0c-0.5,0.2-1-0.1-1.2-0.5
	C7.8,26.5,7.8,26.5,7.8,26.4z M43.6,22.8v-8.7c0-0.9-0.1-1.1-0.9-1.3c-5.5-1.7-11.2-2.3-17-1.8c-3,0.3-6,0.9-8.9,1.8
	c-0.7,0.2-0.9,0.4-0.9,1.3v15.5c0,1.1,0.1,1.1,0.9,1.4c2.8,0.8,5.8,1.2,8.7,1.3c4.1,0.2,8.2,0.1,12.3-0.3c1.7-0.2,3.3-0.6,4.9-1
	c0.6-0.2,0.7-0.4,0.7-1.1L43.6,22.8L43.6,22.8z M39.9,40.3h2.5c0.7,0,1.1-0.5,1.2-1.3v-1.5c-0.1-0.8-0.5-1.3-1.2-1.3h-1.1
	c-2-0.1-3.4,1-4.5,3c-0.1,0.3-0.1,0.6-0.1,0.9c0.1,0.2,0.4,0.3,0.6,0.3L39.9,40.3z M19.8,40.3h2.6c0.4,0,0.7-0.4,0.6-0.7
	c0-0.1,0-0.2-0.1-0.3c-0.7-1.3-1.6-2.5-3-2.9c-0.9-0.2-1.9-0.3-2.8-0.2c-0.6-0.1-1.1,0.5-1.1,1.2c0,0.5,0,1.1,0,1.6
	c0.1,0.7,0.5,1.3,1.1,1.3L19.8,40.3z M29.9,37h-4.7c-1,0-1,0-0.6,1.1c0.1,0.4,0.2,0.6,0.6,0.6h9.3c0.3,0,0.5-0.2,0.6-0.5l0.1-0.5
	c0.2-0.6,0.1-0.6-0.4-0.6H29.9z M29.8,40.3h-3.6c-1.1,0-1,0.1-0.7,1.2c0.1,0.2,0.3,0.4,0.5,0.4c2.5,0.1,5,0.1,7.5,0
	c0.2,0,0.4-0.3,0.5-0.5c0.2-0.2,0.1-0.3,0.1-0.5c0.2-0.6,0.1-0.7-0.4-0.7L29.8,40.3L29.8,40.3z"/>
</svg>
