<?xml version="1.0" encoding="utf-8"?>
<!-- Generator: Adobe Illustrator 22.0.1, SVG Export Plug-In . SVG Version: 6.00 Build 0)  -->
<svg version="1.1" xmlns="http://www.w3.org/2000/svg" xmlns:xlink="http://www.w3.org/1999/xlink" x="0px" y="0px"
	 viewBox="0 0 128 128" style="enable-background:new 0 0 128 128;" xml:space="preserve">
<style type="text/css">
	.st0{fill:#424242;}
	.st1{fill:none;}
	.st2{fill:#414141;}
	.st3{fill-rule:evenodd;clip-rule:evenodd;fill:#424242;}
	.st4{fill-rule:evenodd;clip-rule:evenodd;fill:none;}
	.st5{fill:#4D4E4E;}
	.st6{fill-rule:evenodd;clip-rule:evenodd;fill:#4D4E4E;}
	.st7{fill:#4D4D4D;}
	.st8{fill:#4D4D4D;stroke:#4D4D4D;stroke-width:0.2;stroke-miterlimit:10;}
	.st9{fill-rule:evenodd;clip-rule:evenodd;fill:#4D4D4D;}
	.st10{fill:#404041;}
	.st11{fill-rule:evenodd;clip-rule:evenodd;fill:#0055A3;}
	.st12{fill-rule:evenodd;clip-rule:evenodd;fill:#FFFFFF;}
	.st13{fill-rule:evenodd;clip-rule:evenodd;fill:#F1A337;}
	.st14{fill:#0055A3;}
	.st15{fill:#FAA639;}
	.st16{fill-rule:evenodd;clip-rule:evenodd;fill:#1B88C9;}
	.st17{fill:#1B88C9;}
	.st18{fill:#FFFFFF;}
	.st19{fill:#EE6946;}
	.st20{fill:#FDDE8F;}
	.st21{fill:#00AF87;}
	.st22{fill:#676767;}
	.st23{fill:#231F20;}
	.st24{fill:#58595B;}
	.st25{fill:#0356A2;}
	.st26{fill-rule:evenodd;clip-rule:evenodd;fill:#0356A2;}
	.st27{fill-rule:evenodd;clip-rule:evenodd;fill:#F0A235;}
	.st28{fill:#3D98FF;}
	.st29{fill:#675890;}
	.st30{fill:#0071BB;}
	.st31{fill-rule:evenodd;clip-rule:evenodd;fill:#FC7822;}
	.st32{fill-rule:evenodd;clip-rule:evenodd;fill:#1AC392;}
	.st33{fill:#1AC392;}
	.st34{fill:#ED58BF;}
	.st35{fill:#2379E3;}
	.st36{clip-path:url(#SVGID_2_);}
	.st37{fill:#00237C;}
	.st38{fill:#CF142B;}
	.st39{clip-path:url(#SVGID_4_);}
	.st40{fill:#FFC800;}
	.st41{fill:#009E00;}
	.st42{fill:#E2231A;}
</style>
<g id="myanmar">
</g>
<g id="Password">
	<g>
		<path class="st1" d="M128,108c0,11-9,20-20,20H20c-11,0-20-9-20-20V20C0,9,9,0,20,0h88c11,0,20,9,20,20V108z"/>
		<g>
			<path class="st15" d="M104.9,89.3V58.1H84.4v31.1H82V35.2H46v54.1h-2.3V58.1H23.1v31.1H20v3.5h3.1h20.5H46H82h2.3h20.5h3.1v-3.5
				H104.9z M96.8,63.5h3.7V68h-3.7V63.5z M96.8,70.6h3.7v4.5h-3.7V70.6z M96.8,77.7h3.7v4.5h-3.7V77.7z M88.8,63.5h3.7V68h-3.7V63.5
				z M88.8,70.6h3.7v4.5h-3.7V70.6z M88.8,77.7h3.7v4.5h-3.7V77.7z M67.7,44h6.6v7.5h-6.6V44z M67.7,55.8h6.6v7.5h-6.6V55.8z
				 M67.7,67.7h6.6v7.5h-6.6V67.7z M53.7,44h6.6v7.5h-6.6V44z M53.7,55.8h6.6v7.5h-6.6V55.8z M53.7,67.7h6.6v7.5h-6.6V67.7z
				 M35.5,63.5h3.7V68h-3.7V63.5z M35.5,70.6h3.7v4.5h-3.7V70.6z M35.5,77.7h3.7v4.5h-3.7V77.7z M27.5,63.5h3.7V68h-3.7V63.5z
				 M27.5,70.6h3.7v4.5h-3.7V70.6z M27.5,77.7h3.7v4.5h-3.7V77.7z"/>
			<rect class="st1" width="128" height="128"/>
		</g>
	</g>
</g>
</svg>
