<?xml version="1.0" encoding="utf-8"?>
<!-- Generator: Adobe Illustrator 16.0.0, SVG Export Plug-In . SVG Version: 6.00 Build 0)  -->
<!DOCTYPE svg PUBLIC "-//W3C//DTD SVG 1.1//EN" "http://www.w3.org/Graphics/SVG/1.1/DTD/svg11.dtd">
<svg version="1.1" id="Layer_1" xmlns="http://www.w3.org/2000/svg" xmlns:xlink="http://www.w3.org/1999/xlink" x="0px" y="0px"
	 width="47.118px" height="45.908px" viewBox="0 0 47.118 45.908" enable-background="new 0 0 47.118 45.908" xml:space="preserve">
<g>
	<g>
		<path fill="#FFFFFF" d="M21.786,31.043c-5.201,0-9.431-4.231-9.431-9.432c0-5.201,4.23-9.432,9.431-9.432
			c5.201,0,9.432,4.231,9.432,9.432C31.218,26.812,26.987,31.043,21.786,31.043z M21.786,13.945c-4.227,0-7.666,3.438-7.666,7.666
			c0,4.227,3.439,7.666,7.666,7.666s7.666-3.439,7.666-7.666C29.452,17.384,26.013,13.945,21.786,13.945z"/>
	</g>
	<g>
		
			<rect x="26.18" y="30.573" transform="matrix(0.7072 0.7071 -0.7071 0.7072 31.4309 -12.976)" fill="#FFFFFF" width="10.402" height="1.766"/>
	</g>
</g>
</svg>
